<svg width="144" height="36" viewBox="0 0 144 36" fill="none" xmlns="http://www.w3.org/2000/svg">
<g clip-path="url(#clip0_3078_1030)">
<path d="M55.4109 18.0002L63.701 9.71019C63.8648 9.51888 63.9504 9.27281 63.9407 9.02113C63.9309 8.76946 63.8266 8.53072 63.6485 8.35262C63.4704 8.17453 63.2317 8.0702 62.98 8.06047C62.7283 8.05075 62.4823 8.13636 62.291 8.30019L54.0009 16.5902L45.7109 8.29019C45.5226 8.10188 45.2673 7.99609 45.0009 7.99609C44.7346 7.99609 44.4793 8.10188 44.2909 8.29019C44.1026 8.47849 43.9969 8.73388 43.9969 9.00019C43.9969 9.26649 44.1026 9.52188 44.2909 9.71019L52.591 18.0002L44.2909 26.2902C44.1863 26.3798 44.1012 26.4902 44.0412 26.6142C43.9812 26.7383 43.9475 26.8734 43.9422 27.0111C43.9368 27.1488 43.96 27.2862 44.0103 27.4145C44.0606 27.5428 44.1368 27.6594 44.2343 27.7568C44.3318 27.8543 44.4483 27.9305 44.5766 27.9808C44.705 28.0311 44.8423 28.0543 44.98 28.049C45.1177 28.0437 45.2529 28.0099 45.3769 27.9499C45.501 27.8899 45.6113 27.8049 45.7009 27.7002L54.0009 19.4102L62.291 27.7002C62.4823 27.864 62.7283 27.9496 62.98 27.9399C63.2317 27.9302 63.4704 27.8258 63.6485 27.6477C63.8266 27.4697 63.9309 27.2309 63.9407 26.9792C63.9504 26.7276 63.8648 26.4815 63.701 26.2902L55.4109 18.0002Z" fill="black"/>
</g>
<g clip-path="url(#clip1_3078_1030)">
<path d="M127.411 18.0002L135.701 9.71019C135.865 9.51888 135.95 9.27281 135.941 9.02113C135.931 8.76946 135.827 8.53072 135.649 8.35262C135.47 8.17453 135.232 8.0702 134.98 8.06047C134.728 8.05075 134.482 8.13636 134.291 8.30019L126.001 16.5902L117.711 8.29019C117.523 8.10188 117.267 7.99609 117.001 7.99609C116.735 7.99609 116.479 8.10188 116.291 8.29019C116.103 8.47849 115.997 8.73388 115.997 9.00019C115.997 9.26649 116.103 9.52188 116.291 9.71019L124.591 18.0002L116.291 26.2902C116.186 26.3798 116.101 26.4902 116.041 26.6142C115.981 26.7383 115.947 26.8734 115.942 27.0111C115.937 27.1488 115.96 27.2862 116.01 27.4145C116.061 27.5428 116.137 27.6594 116.234 27.7568C116.332 27.8543 116.448 27.9305 116.577 27.9808C116.705 28.0311 116.842 28.0543 116.98 28.049C117.118 28.0437 117.253 28.0099 117.377 27.9499C117.501 27.8899 117.611 27.8049 117.701 27.7002L126.001 19.4102L134.291 27.7002C134.482 27.864 134.728 27.9496 134.98 27.9399C135.232 27.9302 135.47 27.8258 135.649 27.6477C135.827 27.4697 135.931 27.2309 135.941 26.9792C135.95 26.7276 135.865 26.4815 135.701 26.2902L127.411 18.0002Z" fill="black"/>
</g>
<g clip-path="url(#clip2_3078_1030)">
<path d="M91.4109 18.0002L99.701 9.71019C99.8648 9.51888 99.9504 9.27281 99.9407 9.02113C99.9309 8.76946 99.8266 8.53072 99.6485 8.35262C99.4704 8.17453 99.2317 8.0702 98.98 8.06047C98.7283 8.05075 98.4823 8.13636 98.291 8.30019L90.0009 16.5902L81.7109 8.29019C81.5226 8.10188 81.2673 7.99609 81.0009 7.99609C80.7346 7.99609 80.4793 8.10188 80.2909 8.29019C80.1026 8.47849 79.9969 8.73388 79.9969 9.00019C79.9969 9.26649 80.1026 9.52188 80.2909 9.71019L88.591 18.0002L80.2909 26.2902C80.1863 26.3798 80.1012 26.4902 80.0412 26.6142C79.9812 26.7383 79.9475 26.8734 79.9422 27.0111C79.9368 27.1488 79.96 27.2862 80.0103 27.4145C80.0606 27.5428 80.1368 27.6594 80.2343 27.7568C80.3318 27.8543 80.4483 27.9305 80.5766 27.9808C80.705 28.0311 80.8423 28.0543 80.98 28.049C81.1177 28.0437 81.2529 28.0099 81.3769 27.9499C81.501 27.8899 81.6113 27.8049 81.7009 27.7002L90.0009 19.4102L98.291 27.7002C98.4823 27.864 98.7283 27.9496 98.98 27.9399C99.2317 27.9302 99.4704 27.8258 99.6485 27.6477C99.8266 27.4697 99.9309 27.2309 99.9407 26.9792C99.9504 26.7276 99.8648 26.4815 99.701 26.2902L91.4109 18.0002Z" fill="black"/>
</g>
<g clip-path="url(#clip3_3078_1030)">
<path d="M19.4109 18.0002L27.701 9.71019C27.8648 9.51888 27.9504 9.27281 27.9407 9.02113C27.9309 8.76946 27.8266 8.53072 27.6485 8.35262C27.4704 8.17453 27.2317 8.0702 26.98 8.06047C26.7283 8.05075 26.4823 8.13636 26.291 8.30019L18.0009 16.5902L9.71095 8.29019C9.52265 8.10188 9.26725 7.99609 9.00095 7.99609C8.73465 7.99609 8.47925 8.10188 8.29095 8.29019C8.10265 8.47849 7.99686 8.73388 7.99686 9.00019C7.99686 9.26649 8.10265 9.52188 8.29095 9.71019L16.591 18.0002L8.29095 26.2902C8.18627 26.3798 8.10125 26.4902 8.04122 26.6142C7.9812 26.7383 7.94747 26.8734 7.94215 27.0111C7.93683 27.1488 7.96004 27.2862 8.01031 27.4145C8.06059 27.5428 8.13684 27.6594 8.2343 27.7568C8.33175 27.8543 8.4483 27.9305 8.57663 27.9808C8.70495 28.0311 8.84228 28.0543 8.98 28.049C9.11772 28.0437 9.25285 28.0099 9.37692 27.9499C9.50098 27.8899 9.6113 27.8049 9.70095 27.7002L18.0009 19.4102L26.291 27.7002C26.4823 27.864 26.7283 27.9496 26.98 27.9399C27.2317 27.9302 27.4704 27.8258 27.6485 27.6477C27.8266 27.4697 27.9309 27.2309 27.9407 26.9792C27.9504 26.7276 27.8648 26.4815 27.701 26.2902L19.4109 18.0002Z" fill="black"/>
</g>
<defs>
<clipPath id="clip0_3078_1030">
<rect width="36" height="36" fill="white" transform="translate(36)"/>
</clipPath>
<clipPath id="clip1_3078_1030">
<rect width="36" height="36" fill="white" transform="translate(108)"/>
</clipPath>
<clipPath id="clip2_3078_1030">
<rect width="36" height="36" fill="white" transform="translate(72)"/>
</clipPath>
<clipPath id="clip3_3078_1030">
<rect width="36" height="36" fill="white"/>
</clipPath>
</defs>
</svg>
